<svg width="24" height="24" viewBox="0 0 24 24" fill="none" xmlns="http://www.w3.org/2000/svg">
                            <g clip-path="url(#clip0_428_10)">
                            <path d="M12 15C16.9706 15 21 13.6569 21 12C21 10.3431 16.9706 9 12 9C7.02944 9 3 10.3431 3 12C3 13.6569 7.02944 15 12 15Z" stroke="#323232" stroke-width="1.5" stroke-linecap="round" stroke-linejoin="round"/>
                            <path d="M12 3V21" stroke="#323232" stroke-width="1.5" stroke-linecap="round" stroke-linejoin="round"/>
                            <path d="M21 13V11C21 6.58172 17.4183 3 13 3H11C6.58172 3 3 6.58172 3 11V13C3 17.4183 6.58172 21 11 21H13C17.4183 21 21 17.4183 21 13Z" stroke="#323232" stroke-width="1.5" stroke-linecap="round" stroke-linejoin="round"/>
                            </g>
                            <defs>
                            <clipPath id="clip0_428_10">
                            <rect width="24" height="24" fill="white"/>
                            </clipPath>
                            </defs>
                            </svg>