<svg width="24" height="24" viewBox="0 0 24 24" fill="none" xmlns="http://www.w3.org/2000/svg">
                            <g clip-path="url(#clip0_428_101)">
                            <path d="M16 7C16 4.79086 14.2091 3 12 3C9.79086 3 8 4.79086 8 7C8 9.20914 9.79086 11 12 11C14.2091 11 16 9.20914 16 7Z" stroke="#323232" stroke-width="1.5" stroke-linecap="round" stroke-linejoin="round"/>
                            <path d="M8 14.5714H16C17.0609 14.5714 18.0783 14.9928 18.8284 15.743C19.5786 16.4931 20 17.5105 20 18.5714V20C20 20.2652 19.8946 20.5196 19.7071 20.7071C19.5196 20.8946 19.2652 21 19 21H5C4.73478 21 4.48043 20.8946 4.29289 20.7071C4.10536 20.5196 4 20.2652 4 20V18.5714C4 17.5105 4.42143 16.4931 5.17157 15.743C5.92172 14.9928 6.93913 14.5714 8 14.5714Z" stroke="#323232" stroke-width="1.5" stroke-linecap="round" stroke-linejoin="round"/>
                            </g>
                            <defs>
                            <clipPath id="clip0_428_101">
                            <rect width="24" height="24" fill="white"/>
                            </clipPath>
                            </defs>
                            </svg>